<svg xmlns="http://www.w3.org/2000/svg" viewBox="0 0 900 900" width="900" height="900">
  <defs>
    <radialGradient id="gold" cx="45%" cy="35%" r="70%">
      <stop offset="0" stop-color="#fff4b8"/>
      <stop offset=".45" stop-color="#c79228"/>
      <stop offset="1" stop-color="#7b4b0f"/>
    </radialGradient>
    <radialGradient id="black" cx="45%" cy="30%" r="75%">
      <stop offset="0" stop-color="#24262b"/>
      <stop offset="1" stop-color="#020309"/>
    </radialGradient>
  </defs>
  <rect width="900" height="900" fill="#fff"/>
  <g transform="translate(450 450)">
    <path d="M0-425 53-314 168-390 158-256 302-301 255-158 390-168 314-53 425 0 314 53 390 168 255 158 302 301 158 256 168 390 53 314 0 425-53 314-168 390-158 256-302 301-255 158-390 168-314 53-425 0-314-53-390-168-255-158-302-301-158-256-168-390-53-314Z" fill="url(#gold)"/>
    <circle r="352" fill="url(#black)" stroke="#e4bd62" stroke-width="10"/>
    <circle r="282" fill="none" stroke="#e4bd62" stroke-width="4"/>
    <circle r="244" fill="none" stroke="#fff1bb" stroke-width="2" opacity=".75"/>
    <text x="0" y="-225" text-anchor="middle" direction="rtl" font-size="60" font-weight="900" fill="#fff4cf" font-family="Tahoma, Arial, sans-serif">جامعة الدكتور همام</text>
    <text x="0" y="260" text-anchor="middle" direction="rtl" font-size="44" font-weight="900" fill="#fff4cf" font-family="Tahoma, Arial, sans-serif">للتدريب والتعليم وإعداد القادة</text>
    <g transform="translate(0 -5)">
      <path d="M0 20 C-90-25-145-10-190 35 C-106 33-50 54 0 100 C50 54 106 33 190 35 C145-10 90-25 0 20Z" fill="#f3d36b"/>
      <path d="M0 20 C-45-55-25-130 0-190 C25-130 45-55 0 20Z" fill="#6cc24a"/>
      <path d="M0 20 C-105-55-105-115-78-175 C-34-102-18-42 0 20Z" fill="#f2a31a"/>
      <path d="M0 20 C105-55 105-115 78-175 C34-102 18-42 0 20Z" fill="#0cc2a5"/>
      <path d="M0 20 C-14-43-10-102 0-190 C10-102 14-43 0 20Z" fill="#8a4d2c"/>
      <path d="M0 100 L0-35" stroke="#8a4d2c" stroke-width="18" stroke-linecap="round"/>
      <path d="M-172 38 C-90 55-45 80 0 122 C45 80 90 55 172 38" fill="none" stroke="#e24b3b" stroke-width="18" stroke-linecap="round"/>
      <path d="M-144 68 C-74 80-34 102 0 136 C34 102 74 80 144 68" fill="none" stroke="#14b8c4" stroke-width="18" stroke-linecap="round"/>
    </g>
    <text x="-270" y="38" font-size="70" fill="#ffcc41">★</text>
    <text x="270" y="38" font-size="70" fill="#ffcc41">★</text>
  </g>
</svg>